<svg data-v-423bf9ae="" xmlns="http://www.w3.org/2000/svg" viewBox="0 0 NaN NaN" class="iconAboveSlogan"><!----><!----><!----><g data-v-423bf9ae="" id="2fc6ac66-ce49-43bd-b6f9-5f990641a4c1" fill="#4F94BF" transform="matrix(7.653061541007602,0,0,7.653061541007602,-203.0514412770819,77.2857133925134)"><path d="M5.10 3.92L5.10 3.92Q5.10 4.24 5.04 4.48L5.04 4.48L3.36 4.48L3.36 4.48Q3.42 4.70 3.42 5.04L3.42 5.04L3.42 5.04Q3.42 5.36 3.36 5.60L3.36 5.60L3.36 5.60Q3.42 5.82 3.42 6.16L3.42 6.16L3.42 6.16Q3.42 6.48 3.36 6.72L3.36 6.72L3.36 6.72Q3.42 6.94 3.42 7.28L3.42 7.28L3.42 7.28Q3.42 7.60 3.36 7.84L3.36 7.84L3.36 7.84Q3.42 8.06 3.42 8.40L3.42 8.40L3.42 8.40Q3.42 8.72 3.36 8.96L3.36 8.96L3.36 8.96Q3.42 9.18 3.42 9.52L3.42 9.52L3.42 9.52Q3.42 9.84 3.36 10.08L3.36 10.08L3.36 10.08Q3.42 10.30 3.42 10.64L3.42 10.64L3.42 10.64Q3.42 10.96 3.36 11.20L3.36 11.20L2.24 11.20L2.24 11.20Q2.18 10.96 2.18 10.64L2.18 10.64L2.18 10.64Q2.18 10.30 2.24 10.08L2.24 10.08L2.24 10.08Q2.18 9.84 2.18 9.52L2.18 9.52L2.18 9.52Q2.18 9.18 2.24 8.96L2.24 8.96L2.24 8.96Q2.18 8.72 2.18 8.40L2.18 8.40L2.18 8.40Q2.18 8.06 2.24 7.84L2.24 7.84L2.24 7.84Q2.18 7.60 2.18 7.28L2.18 7.28L2.18 7.28Q2.18 6.94 2.24 6.72L2.24 6.72L2.24 6.72Q2.18 6.48 2.18 6.16L2.18 6.16L2.18 6.16Q2.18 5.82 2.24 5.60L2.24 5.60L2.24 5.60Q2.18 5.36 2.18 5.04L2.18 5.04L2.18 5.04Q2.18 4.70 2.24 4.48L2.24 4.48L0.56 4.48L0.56 4.48Q0.50 4.24 0.50 3.92L0.50 3.92L0.50 3.92Q0.50 3.58 0.56 3.36L0.56 3.36L5.04 3.36L5.04 3.36Q5.10 3.58 5.10 3.92L5.10 3.92ZM10.70 7.28L10.70 7.28Q10.70 7.60 10.64 7.84L10.64 7.84L10.64 7.84Q10.70 8.06 10.70 8.40L10.70 8.40L10.70 8.40Q10.70 8.72 10.64 8.96L10.64 8.96L7.70 8.96L7.70 8.96Q7.76 9.18 7.76 9.52L7.76 9.52L7.76 9.52Q7.76 9.84 7.70 10.08L7.70 10.08L10.08 10.08L10.08 10.08Q10.14 10.30 10.14 10.64L10.14 10.64L10.14 10.64Q10.14 10.96 10.08 11.20L10.08 11.20L7.28 11.20L7.28 11.20Q7.22 10.96 7.22 10.64L7.22 10.64L7.22 10.64Q7.22 10.30 7.28 10.08L7.28 10.08L6.58 10.08L6.58 10.08Q6.52 9.84 6.52 9.52L6.52 9.52L6.52 9.52Q6.52 9.18 6.58 8.96L6.58 8.96L6.16 8.96L6.16 8.96Q6.10 8.72 6.10 8.40L6.10 8.40L6.10 8.40Q6.10 8.06 6.16 7.84L6.16 7.84L6.58 7.84L6.58 7.84Q6.52 7.60 6.52 7.28L6.52 7.28L6.52 7.28Q6.52 6.94 6.58 6.72L6.58 6.72L7.28 6.72L7.28 6.72Q7.22 6.48 7.22 6.16L7.22 6.16L7.22 6.16Q7.22 5.82 7.28 5.60L7.28 5.60L10.08 5.60L10.08 5.60Q10.14 5.82 10.14 6.16L10.14 6.16L10.14 6.16Q10.14 6.48 10.08 6.72L10.08 6.72L10.64 6.72L10.64 6.72Q10.70 6.94 10.70 7.28L10.70 7.28ZM9.52 7.84L9.52 7.84Q9.46 7.60 9.46 7.28L9.46 7.28L9.46 7.28Q9.46 6.94 9.52 6.72L9.52 6.72L7.70 6.72L7.70 6.72Q7.76 6.94 7.76 7.28L7.76 7.28L7.76 7.28Q7.76 7.60 7.70 7.84L7.70 7.84L9.52 7.84ZM15.12 8.96L16.24 8.96L16.24 8.96Q16.30 9.18 16.30 9.52L16.30 9.52L16.30 9.52Q16.30 9.84 16.24 10.08L16.24 10.08L15.68 10.08L15.68 10.08Q15.74 10.30 15.74 10.64L15.74 10.64L15.74 10.64Q15.74 10.96 15.68 11.20L15.68 11.20L12.88 11.20L12.88 11.20Q12.82 10.96 12.82 10.64L12.82 10.64L12.82 10.64Q12.82 10.30 12.88 10.08L12.88 10.08L12.32 10.08L12.32 10.08Q12.26 9.84 12.26 9.52L12.26 9.52L12.26 9.52Q12.26 9.18 12.32 8.96L12.32 8.96L11.76 8.96L11.76 8.96Q11.70 8.72 11.70 8.40L11.70 8.40L11.70 8.40Q11.70 8.06 11.76 7.84L11.76 7.84L12.32 7.84L12.32 7.84Q12.26 7.60 12.26 7.28L12.26 7.28L12.26 7.28Q12.26 6.94 12.32 6.72L12.32 6.72L12.88 6.72L12.88 6.72Q12.82 6.48 12.82 6.16L12.82 6.16L12.82 6.16Q12.82 5.82 12.88 5.60L12.88 5.60L15.68 5.60L15.68 5.60Q15.74 5.82 15.74 6.16L15.74 6.16L15.74 6.16Q15.74 6.48 15.68 6.72L15.68 6.72L16.24 6.72L16.24 6.72Q16.30 6.94 16.30 7.28L16.30 7.28L16.30 7.28Q16.30 7.60 16.24 7.84L16.24 7.84L15.12 7.84L15.12 7.84Q15.06 7.60 15.06 7.28L15.06 7.28L15.06 7.28Q15.06 6.94 15.12 6.72L15.12 6.72L13.44 6.72L13.44 6.72Q13.50 6.94 13.50 7.28L13.50 7.28L13.50 7.28Q13.50 7.60 13.44 7.84L13.44 7.84L12.88 7.84L12.88 7.84Q12.94 8.06 12.94 8.40L12.94 8.40L12.94 8.40Q12.94 8.72 12.88 8.96L12.88 8.96L13.44 8.96L13.44 8.96Q13.50 9.18 13.50 9.52L13.50 9.52L13.50 9.52Q13.50 9.84 13.44 10.08L13.44 10.08L15.12 10.08L15.12 10.08Q15.06 9.84 15.06 9.52L15.06 9.52L15.06 9.52Q15.06 9.18 15.12 8.96L15.12 8.96ZM18.54 6.16L18.54 6.16Q18.54 6.48 18.48 6.72L18.48 6.72L18.90 6.72L18.90 6.72Q18.96 6.94 18.96 7.28L18.96 7.28L18.96 7.28Q18.96 7.60 18.90 7.84L18.90 7.84L18.48 7.84L18.48 7.84Q18.54 8.06 18.54 8.40L18.54 8.40L18.54 8.40Q18.54 8.72 18.48 8.96L18.48 8.96L18.48 8.96Q18.54 9.18 18.54 9.52L18.54 9.52L18.54 9.52Q18.54 9.84 18.48 10.08L18.48 10.08L18.48 10.08Q18.54 10.30 18.54 10.64L18.54 10.64L18.54 10.64Q18.54 10.96 18.48 11.20L18.48 11.20L17.36 11.20L17.36 11.20Q17.30 10.96 17.30 10.64L17.30 10.64L17.30 10.64Q17.30 10.30 17.36 10.08L17.36 10.08L17.36 10.08Q17.30 9.84 17.30 9.52L17.30 9.52L17.30 9.52Q17.30 9.18 17.36 8.96L17.36 8.96L17.36 8.96Q17.30 8.72 17.30 8.40L17.30 8.40L17.30 8.40Q17.30 8.06 17.36 7.84L17.36 7.84L17.36 7.84Q17.30 7.60 17.30 7.28L17.30 7.28L17.30 7.28Q17.30 6.94 17.36 6.72L17.36 6.72L17.36 6.72Q17.30 6.48 17.30 6.16L17.30 6.16L17.30 6.16Q17.30 5.82 17.36 5.60L17.36 5.60L17.36 5.60Q17.30 5.36 17.30 5.04L17.30 5.04L17.30 5.04Q17.30 4.70 17.36 4.48L17.36 4.48L17.36 4.48Q17.30 4.24 17.30 3.92L17.30 3.92L17.30 3.92Q17.30 3.58 17.36 3.36L17.36 3.36L18.48 3.36L18.48 3.36Q18.54 3.58 18.54 3.92L18.54 3.92L18.54 3.92Q18.54 4.24 18.48 4.48L18.48 4.48L18.48 4.48Q18.54 4.70 18.54 5.04L18.54 5.04L18.54 5.04Q18.54 5.36 18.48 5.60L18.48 5.60L18.48 5.60Q18.54 5.82 18.54 6.16L18.54 6.16ZM21.84 7.84L21.84 7.84Q21.90 8.06 21.90 8.40L21.90 8.40L21.90 8.40Q21.90 8.72 21.84 8.96L21.84 8.96L21.84 8.96Q21.90 9.18 21.90 9.52L21.90 9.52L21.90 9.52Q21.90 9.84 21.84 10.08L21.84 10.08L21.84 10.08Q21.90 10.30 21.90 10.64L21.90 10.64L21.90 10.64Q21.90 10.96 21.84 11.20L21.84 11.20L20.72 11.20L20.72 11.20Q20.66 10.96 20.66 10.64L20.66 10.64L20.66 10.64Q20.66 10.30 20.72 10.08L20.72 10.08L20.72 10.08Q20.66 9.84 20.66 9.52L20.66 9.52L20.66 9.52Q20.66 9.18 20.72 8.96L20.72 8.96L20.72 8.96Q20.66 8.72 20.66 8.40L20.66 8.40L20.66 8.40Q20.66 8.06 20.72 7.84L20.72 7.84L20.72 7.84Q20.66 7.60 20.66 7.28L20.66 7.28L20.66 7.28Q20.66 6.94 20.72 6.72L20.72 6.72L18.90 6.72L18.90 6.72Q18.84 6.48 18.84 6.16L18.84 6.16L18.84 6.16Q18.84 5.82 18.90 5.60L18.90 5.60L21.14 5.60L21.14 5.60Q21.20 5.82 21.20 6.16L21.20 6.16L21.20 6.16Q21.20 6.48 21.14 6.72L21.14 6.72L21.84 6.72L21.84 6.72Q21.90 6.94 21.90 7.28L21.90 7.28L21.90 7.28Q21.90 7.60 21.84 7.84L21.84 7.84ZM26.32 8.96L27.44 8.96L27.44 8.96Q27.50 9.18 27.50 9.52L27.50 9.52L27.50 9.52Q27.50 9.84 27.44 10.08L27.44 10.08L26.88 10.08L26.88 10.08Q26.94 10.30 26.94 10.64L26.94 10.64L26.94 10.64Q26.94 10.96 26.88 11.20L26.88 11.20L24.08 11.20L24.08 11.20Q24.02 10.96 24.02 10.64L24.02 10.64L24.02 10.64Q24.02 10.30 24.08 10.08L24.08 10.08L23.52 10.08L23.52 10.08Q23.46 9.84 23.46 9.52L23.46 9.52L23.46 9.52Q23.46 9.18 23.52 8.96L23.52 8.96L22.96 8.96L22.96 8.96Q22.90 8.72 22.90 8.40L22.90 8.40L22.90 8.40Q22.90 8.06 22.96 7.84L22.96 7.84L22.96 7.84Q22.90 7.60 22.90 7.28L22.90 7.28L22.90 7.28Q22.90 6.94 22.96 6.72L22.96 6.72L22.96 6.72Q22.90 6.48 22.90 6.16L22.90 6.16L22.90 6.16Q22.90 5.82 22.96 5.60L22.96 5.60L23.52 5.60L23.52 5.60Q23.46 5.36 23.46 5.04L23.46 5.04L23.46 5.04Q23.46 4.70 23.52 4.48L23.52 4.48L24.08 4.48L24.08 4.48Q24.02 4.24 24.02 3.92L24.02 3.92L24.02 3.92Q24.02 3.58 24.08 3.36L24.08 3.36L26.88 3.36L26.88 3.36Q26.94 3.58 26.94 3.92L26.94 3.92L26.94 3.92Q26.94 4.24 26.88 4.48L26.88 4.48L27.44 4.48L27.44 4.48Q27.50 4.70 27.50 5.04L27.50 5.04L27.50 5.04Q27.50 5.36 27.44 5.60L27.44 5.60L26.32 5.60L26.32 5.60Q26.26 5.36 26.26 5.04L26.26 5.04L26.26 5.04Q26.26 4.70 26.32 4.48L26.32 4.48L24.64 4.48L24.64 4.48Q24.70 4.70 24.70 5.04L24.70 5.04L24.70 5.04Q24.70 5.36 24.64 5.60L24.64 5.60L24.08 5.60L24.08 5.60Q24.14 5.82 24.14 6.16L24.14 6.16L24.14 6.16Q24.14 6.48 24.08 6.72L24.08 6.72L24.08 6.72Q24.14 6.94 24.14 7.28L24.14 7.28L24.14 7.28Q24.14 7.60 24.08 7.84L24.08 7.84L24.08 7.84Q24.14 8.06 24.14 8.40L24.14 8.40L24.14 8.40Q24.14 8.72 24.08 8.96L24.08 8.96L24.64 8.96L24.64 8.96Q24.70 9.18 24.70 9.52L24.70 9.52L24.70 9.52Q24.70 9.84 24.64 10.08L24.64 10.08L26.32 10.08L26.32 10.08Q26.26 9.84 26.26 9.52L26.26 9.52L26.26 9.52Q26.26 9.18 26.32 8.96L26.32 8.96ZM33.10 8.40L33.10 8.40Q33.10 8.72 33.04 8.96L33.04 8.96L32.62 8.96L32.62 8.96Q32.68 9.18 32.68 9.52L32.68 9.52L32.68 9.52Q32.68 9.84 32.62 10.08L32.62 10.08L31.92 10.08L31.92 10.08Q31.98 10.30 31.98 10.64L31.98 10.64L31.98 10.64Q31.98 10.96 31.92 11.20L31.92 11.20L29.68 11.20L29.68 11.20Q29.62 10.96 29.62 10.64L29.62 10.64L29.62 10.64Q29.62 10.30 29.68 10.08L29.68 10.08L28.98 10.08L28.98 10.08Q28.92 9.84 28.92 9.52L28.92 9.52L28.92 9.52Q28.92 9.18 28.98 8.96L28.98 8.96L28.56 8.96L28.56 8.96Q28.50 8.72 28.50 8.40L28.50 8.40L28.50 8.40Q28.50 8.06 28.56 7.84L28.56 7.84L28.98 7.84L28.98 7.84Q28.92 7.60 28.92 7.28L28.92 7.28L28.92 7.28Q28.92 6.94 28.98 6.72L28.98 6.72L29.68 6.72L29.68 6.72Q29.62 6.48 29.62 6.16L29.62 6.16L29.62 6.16Q29.62 5.82 29.68 5.60L29.68 5.60L31.92 5.60L31.92 5.60Q31.98 5.82 31.98 6.16L31.98 6.16L31.98 6.16Q31.98 6.48 31.92 6.72L31.92 6.72L32.62 6.72L32.62 6.72Q32.68 6.94 32.68 7.28L32.68 7.28L32.68 7.28Q32.68 7.60 32.62 7.84L32.62 7.84L33.04 7.84L33.04 7.84Q33.10 8.06 33.10 8.40L33.10 8.40ZM31.50 8.96L31.92 8.96L31.92 8.96Q31.86 8.72 31.86 8.40L31.86 8.40L31.86 8.40Q31.86 8.06 31.92 7.84L31.92 7.84L31.50 7.84L31.50 7.84Q31.44 7.60 31.44 7.28L31.44 7.28L31.44 7.28Q31.44 6.94 31.50 6.72L31.50 6.72L30.10 6.72L30.10 6.72Q30.16 6.94 30.16 7.28L30.16 7.28L30.16 7.28Q30.16 7.60 30.10 7.84L30.10 7.84L29.68 7.84L29.68 7.84Q29.74 8.06 29.74 8.40L29.74 8.40L29.74 8.40Q29.74 8.72 29.68 8.96L29.68 8.96L30.10 8.96L30.10 8.96Q30.16 9.18 30.16 9.52L30.16 9.52L30.16 9.52Q30.16 9.84 30.10 10.08L30.10 10.08L31.50 10.08L31.50 10.08Q31.44 9.84 31.44 9.52L31.44 9.52L31.44 9.52Q31.44 9.18 31.50 8.96L31.50 8.96ZM35.20 6.16L35.20 6.16Q35.20 6.48 35.14 6.72L35.14 6.72L35.70 6.72L35.70 6.72Q35.76 6.94 35.76 7.28L35.76 7.28L35.76 7.28Q35.76 7.60 35.70 7.84L35.70 7.84L35.28 7.84L35.28 7.84Q35.34 8.06 35.34 8.40L35.34 8.40L35.34 8.40Q35.34 8.72 35.28 8.96L35.28 8.96L35.28 8.96Q35.34 9.18 35.34 9.52L35.34 9.52L35.34 9.52Q35.34 9.84 35.28 10.08L35.28 10.08L35.28 10.08Q35.34 10.30 35.34 10.64L35.34 10.64L35.34 10.64Q35.34 10.96 35.28 11.20L35.28 11.20L34.16 11.20L34.16 11.20Q34.10 10.96 34.10 10.64L34.10 10.64L34.10 10.64Q34.10 10.30 34.16 10.08L34.16 10.08L34.16 10.08Q34.10 9.84 34.10 9.52L34.10 9.52L34.10 9.52Q34.10 9.18 34.16 8.96L34.16 8.96L34.16 8.96Q34.10 8.72 34.10 8.40L34.10 8.40L34.10 8.40Q34.10 8.06 34.16 7.84L34.16 7.84L34.16 7.84Q34.10 7.60 34.10 7.28L34.10 7.28L34.10 7.28Q34.10 6.94 34.16 6.72L34.16 6.72L34.16 6.72Q34.10 6.48 34.10 6.16L34.10 6.16L34.10 6.16Q34.10 5.82 34.16 5.60L34.16 5.60L35.14 5.60L35.14 5.60Q35.20 5.82 35.20 6.16L35.20 6.16ZM38.64 7.84L38.64 7.84Q38.70 8.06 38.70 8.40L38.70 8.40L38.70 8.40Q38.70 8.72 38.64 8.96L38.64 8.96L38.64 8.96Q38.70 9.18 38.70 9.52L38.70 9.52L38.70 9.52Q38.70 9.84 38.64 10.08L38.64 10.08L38.64 10.08Q38.70 10.30 38.70 10.64L38.70 10.64L38.70 10.64Q38.70 10.96 38.64 11.20L38.64 11.20L37.52 11.20L37.52 11.20Q37.46 10.96 37.46 10.64L37.46 10.64L37.46 10.64Q37.46 10.30 37.52 10.08L37.52 10.08L37.52 10.08Q37.46 9.84 37.46 9.52L37.46 9.52L37.46 9.52Q37.46 9.18 37.52 8.96L37.52 8.96L37.52 8.96Q37.46 8.72 37.46 8.40L37.46 8.40L37.46 8.40Q37.46 8.06 37.52 7.84L37.52 7.84L37.52 7.84Q37.46 7.60 37.46 7.28L37.46 7.28L37.46 7.28Q37.46 6.94 37.52 6.72L37.52 6.72L35.70 6.72L35.70 6.72Q35.64 6.48 35.64 6.16L35.64 6.16L35.64 6.16Q35.64 5.82 35.70 5.60L35.70 5.60L37.94 5.60L37.94 5.60Q38.00 5.82 38.00 6.16L38.00 6.16L38.00 6.16Q38.00 6.48 37.94 6.72L37.94 6.72L38.64 6.72L38.64 6.72Q38.70 6.94 38.70 7.28L38.70 7.28L38.70 7.28Q38.70 7.60 38.64 7.84L38.64 7.84ZM40.80 6.16L40.80 6.16Q40.80 6.48 40.74 6.72L40.74 6.72L41.30 6.72L41.30 6.72Q41.36 6.94 41.36 7.28L41.36 7.28L41.36 7.28Q41.36 7.60 41.30 7.84L41.30 7.84L40.88 7.84L40.88 7.84Q40.94 8.06 40.94 8.40L40.94 8.40L40.94 8.40Q40.94 8.72 40.88 8.96L40.88 8.96L40.88 8.96Q40.94 9.18 40.94 9.52L40.94 9.52L40.94 9.52Q40.94 9.84 40.88 10.08L40.88 10.08L40.88 10.08Q40.94 10.30 40.94 10.64L40.94 10.64L40.94 10.64Q40.94 10.96 40.88 11.20L40.88 11.20L39.76 11.20L39.76 11.20Q39.70 10.96 39.70 10.64L39.70 10.64L39.70 10.64Q39.70 10.30 39.76 10.08L39.76 10.08L39.76 10.08Q39.70 9.84 39.70 9.52L39.70 9.52L39.70 9.52Q39.70 9.18 39.76 8.96L39.76 8.96L39.76 8.96Q39.70 8.72 39.70 8.40L39.70 8.40L39.70 8.40Q39.70 8.06 39.76 7.84L39.76 7.84L39.76 7.84Q39.70 7.60 39.70 7.28L39.70 7.28L39.70 7.28Q39.70 6.94 39.76 6.72L39.76 6.72L39.76 6.72Q39.70 6.48 39.70 6.16L39.70 6.16L39.70 6.16Q39.70 5.82 39.76 5.60L39.76 5.60L40.74 5.60L40.74 5.60Q40.80 5.82 40.80 6.16L40.80 6.16ZM44.24 7.84L44.24 7.84Q44.30 8.06 44.30 8.40L44.30 8.40L44.30 8.40Q44.30 8.72 44.24 8.96L44.24 8.96L44.24 8.96Q44.30 9.18 44.30 9.52L44.30 9.52L44.30 9.52Q44.30 9.84 44.24 10.08L44.24 10.08L44.24 10.08Q44.30 10.30 44.30 10.64L44.30 10.64L44.30 10.64Q44.30 10.96 44.24 11.20L44.24 11.20L43.12 11.20L43.12 11.20Q43.06 10.96 43.06 10.64L43.06 10.64L43.06 10.64Q43.06 10.30 43.12 10.08L43.12 10.08L43.12 10.08Q43.06 9.84 43.06 9.52L43.06 9.52L43.06 9.52Q43.06 9.18 43.12 8.96L43.12 8.96L43.12 8.96Q43.06 8.72 43.06 8.40L43.06 8.40L43.06 8.40Q43.06 8.06 43.12 7.84L43.12 7.84L43.12 7.84Q43.06 7.60 43.06 7.28L43.06 7.28L43.06 7.28Q43.06 6.94 43.12 6.72L43.12 6.72L41.30 6.72L41.30 6.72Q41.24 6.48 41.24 6.16L41.24 6.16L41.24 6.16Q41.24 5.82 41.30 5.60L41.30 5.60L43.54 5.60L43.54 5.60Q43.60 5.82 43.60 6.16L43.60 6.16L43.60 6.16Q43.60 6.48 43.54 6.72L43.54 6.72L44.24 6.72L44.24 6.72Q44.30 6.94 44.30 7.28L44.30 7.28L44.30 7.28Q44.30 7.60 44.24 7.84L44.24 7.84ZM49.90 7.28L49.90 7.28Q49.90 7.60 49.84 7.84L49.84 7.84L49.84 7.84Q49.90 8.06 49.90 8.40L49.90 8.40L49.90 8.40Q49.90 8.72 49.84 8.96L49.84 8.96L46.90 8.96L46.90 8.96Q46.96 9.18 46.96 9.52L46.96 9.52L46.96 9.52Q46.96 9.84 46.90 10.08L46.90 10.08L49.28 10.08L49.28 10.08Q49.34 10.30 49.34 10.64L49.34 10.64L49.34 10.64Q49.34 10.96 49.28 11.20L49.28 11.20L46.48 11.20L46.48 11.20Q46.42 10.96 46.42 10.64L46.42 10.64L46.42 10.64Q46.42 10.30 46.48 10.08L46.48 10.08L45.78 10.08L45.78 10.08Q45.72 9.84 45.72 9.52L45.72 9.52L45.72 9.52Q45.72 9.18 45.78 8.96L45.78 8.96L45.36 8.96L45.36 8.96Q45.30 8.72 45.30 8.40L45.30 8.40L45.30 8.40Q45.30 8.06 45.36 7.84L45.36 7.84L45.78 7.84L45.78 7.84Q45.72 7.60 45.72 7.28L45.72 7.28L45.72 7.28Q45.72 6.94 45.78 6.72L45.78 6.72L46.48 6.72L46.48 6.72Q46.42 6.48 46.42 6.16L46.42 6.16L46.42 6.16Q46.42 5.82 46.48 5.60L46.48 5.60L49.28 5.60L49.28 5.60Q49.34 5.82 49.34 6.16L49.34 6.16L49.34 6.16Q49.34 6.48 49.28 6.72L49.28 6.72L49.84 6.72L49.84 6.72Q49.90 6.94 49.90 7.28L49.90 7.28ZM48.72 7.84L48.72 7.84Q48.66 7.60 48.66 7.28L48.66 7.28L48.66 7.28Q48.66 6.94 48.72 6.72L48.72 6.72L46.90 6.72L46.90 6.72Q46.96 6.94 46.96 7.28L46.96 7.28L46.96 7.28Q46.96 7.60 46.90 7.84L46.90 7.84L48.72 7.84ZM54.32 8.96L55.44 8.96L55.44 8.96Q55.50 9.18 55.50 9.52L55.50 9.52L55.50 9.52Q55.50 9.84 55.44 10.08L55.44 10.08L54.88 10.08L54.88 10.08Q54.94 10.30 54.94 10.64L54.94 10.64L54.94 10.64Q54.94 10.96 54.88 11.20L54.88 11.20L52.08 11.20L52.08 11.20Q52.02 10.96 52.02 10.64L52.02 10.64L52.02 10.64Q52.02 10.30 52.08 10.08L52.08 10.08L51.52 10.08L51.52 10.08Q51.46 9.84 51.46 9.52L51.46 9.52L51.46 9.52Q51.46 9.18 51.52 8.96L51.52 8.96L50.96 8.96L50.96 8.96Q50.90 8.72 50.90 8.40L50.90 8.40L50.90 8.40Q50.90 8.06 50.96 7.84L50.96 7.84L51.52 7.84L51.52 7.84Q51.46 7.60 51.46 7.28L51.46 7.28L51.46 7.28Q51.46 6.94 51.52 6.72L51.52 6.72L52.08 6.72L52.08 6.72Q52.02 6.48 52.02 6.16L52.02 6.16L52.02 6.16Q52.02 5.82 52.08 5.60L52.08 5.60L54.88 5.60L54.88 5.60Q54.94 5.82 54.94 6.16L54.94 6.16L54.94 6.16Q54.94 6.48 54.88 6.72L54.88 6.72L55.44 6.72L55.44 6.72Q55.50 6.94 55.50 7.28L55.50 7.28L55.50 7.28Q55.50 7.60 55.44 7.84L55.44 7.84L54.32 7.84L54.32 7.84Q54.26 7.60 54.26 7.28L54.26 7.28L54.26 7.28Q54.26 6.94 54.32 6.72L54.32 6.72L52.64 6.72L52.64 6.72Q52.70 6.94 52.70 7.28L52.70 7.28L52.70 7.28Q52.70 7.60 52.64 7.84L52.64 7.84L52.08 7.84L52.08 7.84Q52.14 8.06 52.14 8.40L52.14 8.40L52.14 8.40Q52.14 8.72 52.08 8.96L52.08 8.96L52.64 8.96L52.64 8.96Q52.70 9.18 52.70 9.52L52.70 9.52L52.70 9.52Q52.70 9.84 52.64 10.08L52.64 10.08L54.32 10.08L54.32 10.08Q54.26 9.84 54.26 9.52L54.26 9.52L54.26 9.52Q54.26 9.18 54.32 8.96L54.32 8.96ZM58.80 10.08L60.48 10.08L60.48 10.08Q60.54 10.30 60.54 10.64L60.54 10.64L60.54 10.64Q60.54 10.96 60.48 11.20L60.48 11.20L58.24 11.20L58.24 11.20Q58.18 10.96 58.18 10.64L58.18 10.64L58.18 10.64Q58.18 10.30 58.24 10.08L58.24 10.08L57.68 10.08L57.68 10.08Q57.62 9.84 57.62 9.52L57.62 9.52L57.62 9.52Q57.62 9.18 57.68 8.96L57.68 8.96L57.68 8.96Q57.62 8.72 57.62 8.40L57.62 8.40L57.62 8.40Q57.62 8.06 57.68 7.84L57.68 7.84L57.68 7.84Q57.62 7.60 57.62 7.28L57.62 7.28L57.62 7.28Q57.62 6.94 57.68 6.72L57.68 6.72L56.56 6.72L56.56 6.72Q56.50 6.48 56.50 6.16L56.50 6.16L56.50 6.16Q56.50 5.82 56.56 5.60L56.56 5.60L57.68 5.60L57.68 5.60Q57.62 5.36 57.62 5.04L57.62 5.04L57.62 5.04Q57.62 4.70 57.68 4.48L57.68 4.48L57.68 4.48Q57.62 4.24 57.62 3.92L57.62 3.92L57.62 3.92Q57.62 3.58 57.68 3.36L57.68 3.36L58.80 3.36L58.80 3.36Q58.86 3.58 58.86 3.92L58.86 3.92L58.86 3.92Q58.86 4.24 58.80 4.48L58.80 4.48L58.80 4.48Q58.86 4.70 58.86 5.04L58.86 5.04L58.86 5.04Q58.86 5.36 58.80 5.60L58.80 5.60L60.48 5.60L60.48 5.60Q60.54 5.82 60.54 6.16L60.54 6.16L60.54 6.16Q60.54 6.48 60.48 6.72L60.48 6.72L58.80 6.72L58.80 6.72Q58.86 6.94 58.86 7.28L58.86 7.28L58.86 7.28Q58.86 7.60 58.80 7.84L58.80 7.84L58.80 7.84Q58.86 8.06 58.86 8.40L58.86 8.40L58.86 8.40Q58.86 8.72 58.80 8.96L58.80 8.96L58.80 8.96Q58.86 9.18 58.86 9.52L58.86 9.52L58.86 9.52Q58.86 9.84 58.80 10.08L58.80 10.08Z"></path></g><!----><g data-v-423bf9ae="" id="3329c3fe-c870-44b6-94cc-2db2a4e48c11" transform="matrix(1.8953453940048404,0,0,1.8953453940048404,-22.38326320411467,-2.1256731665323017)" stroke="none" fill="#2D8FC2"><path clip-rule="evenodd" d="M19.852 5.978l5.825 4.904 7.341-8.766c.79-.941 2.133-1.135 2.966-.451.833.705.875 2.047.088 3.008l-7.343 8.773 7.362 6.145 7.277-8.686c.768-.939 2.111-1.152 2.944-.447.832.705.874 2.049.084 2.988l-7.254 8.705 5.845 4.887a2.495 2.495 0 0 1 .322 3.5 2.472 2.472 0 0 1-3.499.316L16.651 9.796a2.476 2.476 0 0 1-.299-3.5c.875-1.045 2.453-1.195 3.5-.318zM3.036 46.289l10.906-10.971 2.473 2.455L5.533 48.742l-2.497-2.453zm15.301-29.258l-5.059 6.061c-1.343 1.602-.916 4.186.938 5.743l9.304 7.787c1.836 1.557 4.46 1.516 5.785-.084l5.077-6.063-16.045-13.444zm-.511-2.815l-6.721 8.021c-1.772 2.133-1.388 5.42.853 7.297l11.268 9.434c2.238 1.879 5.525 1.684 7.297-.447l6.721-8.047-19.418-16.258zm-.578-2.625l-8.279 9.92c-2.198 2.625-1.855 6.551.767 8.75l13.168 11.012c2.582 2.197 6.529 1.857 8.728-.768l8.302-9.924-22.686-18.99z"></path></g><!----><g data-v-423bf9ae="" id="a58159a3-9143-4e06-a34a-fcd4c4978a73" fill="#000000" transform="matrix(Infinity,0,0,Infinity,0,0)"><path d=""></path></g></svg>